<?xml version="1.0" encoding="UTF-8" standalone="no"?>
<!DOCTYPE svg PUBLIC "-//W3C//DTD SVG 1.1//EN" "http://www.w3.org/Graphics/SVG/1.1/DTD/svg11.dtd">
<!-- Created with Vectornator (http://vectornator.io/) -->
<svg height="100%" stroke-miterlimit="10" style="fill-rule:nonzero;clip-rule:evenodd;stroke-linecap:round;stroke-linejoin:round;" version="1.1" viewBox="0 0 3370.82 2384.24" width="100%" xml:space="preserve" xmlns="http://www.w3.org/2000/svg" xmlns:vectornator="http://vectornator.io" xmlns:xlink="http://www.w3.org/1999/xlink">
<defs/>
<g id="レイヤー-2" vectornator:layerName="レイヤー 2">
<path d="M1012.99 872.945C1195.57 629.5 638.276 957.417 697.935 1076.73C706.397 1093.66 733.909 1064.49 750.639 1055.65C830.801 1013.3 891.565 1017 979.023 1017" fill="none" opacity="1" stroke="#000000" stroke-linecap="round" stroke-linejoin="round" stroke-opacity="0.990943" stroke-width="6.68369"/>
<path d="M988.393 858.891C981.532 838.31 946.81 875.669 932.175 891.684C886.963 941.162 748.422 1362.92 639.375 1210.25" fill="none" opacity="1" stroke="#000000" stroke-linecap="round" stroke-linejoin="round" stroke-opacity="0.990943" stroke-width="6.68369"/>
<path d="M1059.84 920.964C1003.18 930.408 952.965 1062.69 923.977 1110.7C922.721 1112.78 864.899 1229.6 875.957 1226.65C896.95 1221.05 996.238 1120.41 967.311 1114.21C938.524 1108.04 856.518 1161.01 864.245 1198.54C873.578 1243.87 1025.12 1128.48 1022.36 1127.1C998.71 1115.27 970.107 1226.24 987.222 1221.96C1025.59 1212.37 1100.94 1112.61 1076.23 1143.49C1024.22 1208.51 1075.89 1202.49 1125.42 1172.77" fill="none" opacity="1" stroke="#000000" stroke-linecap="round" stroke-linejoin="round" stroke-opacity="0.990943" stroke-width="6.68369"/>
<path d="M1083.26 1106.01C1096.29 1096.61 1274.93 972.341 1246.06 933.848C1230.79 913.487 1208.48 969.227 1195.7 991.237C1158.41 1055.44 1103.83 1178.72 1092.63 1257.1C1089.54 1278.72 1108.91 1216.43 1119.57 1197.37C1138.04 1164.31 1166.88 1126.84 1196.87 1103.67C1204.47 1097.8 1217.31 1082.8 1222.63 1090.79C1236.93 1112.23 1146.78 1204.29 1131.28 1190.34C1110.5 1171.64 1183.25 1094.59 1180.47 1122.41C1178.78 1139.28 1141.48 1229.75 1165.24 1231.33C1185.82 1232.71 1226.12 1166.96 1223.8 1170.43C1201.48 1203.91 1226.8 1260.41 1247.23 1196.2" fill="none" opacity="1" stroke="#000000" stroke-linecap="round" stroke-linejoin="round" stroke-opacity="0.990943" stroke-width="6.68369"/>
<path d="M1247.23 1141.15C1236.21 1141.15 1244.75 1140.6 1223.8 1151.69" fill="none" opacity="1" stroke="#000000" stroke-linecap="round" stroke-linejoin="round" stroke-opacity="0.990943" stroke-width="6.68369"/>
<path d="M1289.15 1222.49C1289.15 1250.55 1338.8 1196.01 1365 1185.96C1401.05 1172.14 1435.37 1153.39 1469.89 1136.33C1518.91 1112.11 1882.85 894.083 1837 831.034C1828.45 819.286 1798.72 832.452 1792.04 836.653C1651.95 924.863 1633.74 1167.67 1484.88 1234.66C1353.66 1293.71 1440.38 992.438 1324.74 979.936C1314.32 978.811 1302.52 993.975 1299.45 1002.41C1267.67 1089.8 1380.39 1105.01 1440.86 1116.66C1593.15 1146.02 1731.4 1107.46 1866.03 1032.38" fill="none" opacity="1" stroke="#000000" stroke-linecap="round" stroke-linejoin="round" stroke-opacity="0.990943" stroke-width="6.68369"/>
<path d="M1870.29 910.726C1848.55 945.496 1678.24 1209.53 1681.9 1215.63C1683.52 1218.32 1795.01 1054.16 1813.66 1058.82C1855.26 1069.22 1749.96 1158.32 1784.26 1184.05C1788.61 1187.31 1919.91 1092.74 1906.22 1065.35C1905.57 1064.06 1902.84 1064.28 1901.86 1065.35C1823.54 1152.38 1885.49 1249.5 1934.53 1102.38" fill="none" opacity="1" stroke="#000000" stroke-linecap="round" stroke-linejoin="round" stroke-opacity="0.990943" stroke-width="6.68369"/>
<path d="M1926.91 1037.04C1921.52 1046.03 1912.93 1048.96 1902.95 1052.29" fill="none" opacity="1" stroke="#000000" stroke-linecap="round" stroke-linejoin="round" stroke-opacity="0.990943" stroke-width="6.68369"/>
<path d="M2110.19 881.088C2218.45 712.684 1890.37 1167.62 1934.87 1212.12C1954.85 1232.1 2099.24 1093.04 2063.37 1060.76C2014.01 1016.34 1906.86 1170.84 1933.78 1185.99C1979.37 1211.63 2182.03 1029.16 2159.19 1013.94C2119 987.141 2057.33 1162.56 2055.75 1178.37C2050.02 1235.62 2164.64 1044.43 2164.64 1044.43C2164.64 1044.43 2119.89 1109.51 2128.7 1143.52C2146.78 1213.25 2260.92 1036.96 2244.13 1031.36C2233.61 1027.85 2185.5 1122.92 2207.11 1133.72C2226.14 1143.24 2369.99 1009.55 2355.2 991.071C2334.86 965.648 2249.17 1120.83 2246.31 1125.01C2237.18 1138.33 2070.63 1328.91 2097.13 1360.22C2139.74 1410.58 2331.52 1196.01 2297.49 1172.92C2243.64 1136.38 2166.5 1189.72 2118.9 1217.57C2094.83 1231.66 2023.52 1273.27 2050.3 1265.48C2111.62 1247.64 2481.2 1055.77 2458.65 1010.67C2438.35 970.064 2328.29 1139.57 2335.6 1163.12C2349.78 1208.8 2485.53 1047.72 2473.9 1030.27C2473.76 1030.06 2393.81 1149.9 2445.58 1159.86C2487.8 1167.97 2492.52 1016.28 2516.36 1052.05C2528.3 1069.95 2494.58 1131.72 2493.5 1151.14C2491.82 1181.3 2512.7 1069.95 2542.5 1074.92C2554.31 1076.89 2532.45 1149.09 2535.97 1158.77C2536.81 1161.08 2563.89 1078.42 2586.06 1085.81C2604.38 1091.92 2569.51 1146.02 2590.41 1160.94C2599.08 1167.14 2640.57 1100.19 2649.21 1090.16C2657.26 1080.83 2719.61 1040.8 2705.84 1019.38C2676.2 973.281 2609.72 1117.59 2616.55 1138.08C2639.36 1206.53 2701.77 1027.32 2702.57 1030.27C2709.21 1054.6 2695.91 1218.92 2749.4 1140.25" fill="none" opacity="1" stroke="#000000" stroke-linecap="round" stroke-linejoin="round" stroke-opacity="0.990943" stroke-width="6.68369"/>
</g>
</svg>
